<svg width="59" height="90" viewBox="0 0 59 90" fill="none" xmlns="http://www.w3.org/2000/svg">
<path d="M44.8872 83.2014C38.718 79.155 6.41476 72.5892 6.98115 59.2964C7.54753 46.0036 41.2621 12.8077 48.2967 3.45344M43.9544 85.3335C37.7318 81.0217 5.85295 71.4803 6.37596 57.5177C6.9089 43.5539 39.8644 10.4125 47.1123 1.55563" stroke="black" stroke-linecap="round"/>
<path d="M34.3114 31.4634C39.9593 21.335 43.1684 15.482 47.8317 2.15106M36.7786 28.8675C37.8803 23.7313 40.3937 17.4714 46.7154 1.12151" stroke="black" stroke-linecap="round"/>
<path d="M18.9915 17.8174C28.55 11.2416 35.7962 8.98588 47.8317 2.15104M21.4475 15.2128C25.6202 12.7969 31.2515 9.31182 46.7154 1.12149" stroke="black" stroke-linecap="round"/>
</svg>
